<?xml version="1.0" encoding="utf-8"?>
<!-- Generator: Adobe Illustrator 24.0.0, SVG Export Plug-In . SVG Version: 6.00 Build 0)  -->
<svg version="1.1" id="Layer_1" xmlns="http://www.w3.org/2000/svg" xmlns:xlink="http://www.w3.org/1999/xlink" x="0px" y="0px"
	 viewBox="0 0 896 896" style="enable-background:new 0 0 896 896;" xml:space="preserve">
<style type="text/css">
	.st0{fill:none;stroke:#000000;stroke-width:50;stroke-miterlimit:10;}
</style>
<path class="st0" d="M847.6,204v481.6c0,8.6-7,15.5-15.5,15.5H63.4c-8.6,0-15.5-7-15.5-15.5V204c0-8.6,7-15.5,15.5-15.5h5.5
	c-6.8,1-9.7,10-4.2,14.8l304.2,271.4l72.4,64.6c3.1,2.9,7.8,2.9,11,0.1l73.5-65.3l304.9-270.7c5.5-4.9,2.6-13.9-4.2-14.9h5.6
	C840.6,188.5,847.6,195.4,847.6,204z"/>
<path class="st0" d="M828.2,701H67.4c-6,0-8.4-7.8-3.5-11.3l305-215l72.4,64.6c3.1,2.9,7.8,2.9,11,0.1l73.5-65.3l305.8,215.6
	C836.5,693.1,834.1,701,828.2,701z"/>
<path class="st0" d="M830.7,203.4L525.8,474.1l-73.5,65.3c-3.2,2.8-7.9,2.8-11-0.1l-72.4-64.6L64.7,203.3
	c-5.5-4.8-2.6-13.8,4.2-14.8h757.6C833.3,189.5,836.2,198.5,830.7,203.4z"/>
</svg>
