<?xml version="1.0" encoding="utf-8"?>
<!-- Generator: Adobe Illustrator 23.1.1, SVG Export Plug-In . SVG Version: 6.00 Build 0)  -->
<svg version="1.1" id="Layer_1" xmlns="http://www.w3.org/2000/svg" xmlns:xlink="http://www.w3.org/1999/xlink" x="0px" y="0px"
	 viewBox="0 0 612 612" style="enable-background:new 0 0 612 612;" xml:space="preserve">
<style type="text/css">
	.st0{fill:none;}
	.st1{fill:#FFFFFF;}
</style>
<g>
	<path class="st0" d="M210.2,27.6c130,0,260,0,389.9,0c0,187.1,0,374.1,0,561.2c-187.1,0-374.1,0-561.2,0c0-187.1,0-374.1,0-561.2
		c51.9,0,103.8,0,155.7,0c-0.7,0.2-1.5,0.5-2.2,0.6c-28.1,2.4-53.3,12.9-74.7,30.8c-62.5,52.1-85.5,119.8-75,199.3
		c5.9,44.9,25.8,84.1,53.6,119.6c0.5,0.7,1.1,1.3,2.5,2.9c-3.9-20.5-6.1-39.9-0.3-59.5c0.4,0.5,0.6,0.6,0.7,0.9
		c0.2,0.9,0.4,1.8,0.5,2.7c3,24.7,10.9,47.7,23.9,68.9c16.6,27.3,39.2,48.9,65.1,67.1c13.6,9.5,21.3,23,26.5,38.2
		c0.5,1.4,0,3.6-0.8,4.9c-6.4,9.9-13,19.7-19.5,29.5c-7.5,11.5-15,23-22.4,34.6c-2,3.1-4.8,4-8.3,3.5c-6.3-0.9-12.6-1.9-18.9-2.6
		c-19.9-2.2-39.8-4.2-59.7-1c-6.9,1.1-13.7,3.6-20.2,6.4c-4.7,2-7.7,6.2-8.4,11.9c17.6-5.7,23.6-6.6,39.5-5c9,0.9,18,2.1,27,3.3
		c24.1,3.2,48.3,4.5,72.6,2.6c1.1-0.1,2.5-0.3,3.2-1c3-3.2,6.8-3.4,10.7-3c14.4,1.5,28.8,3.5,43.2,4.2c13.4,0.7,26.9-0.1,40.4-0.3
		c1,0,2-0.4,2.9-0.8c2.5-1.1,5-3,7.6-3.2c5.7-0.5,11.4-0.7,17.1,0c7.7,0.8,15.4,2.5,23,3.9c-0.7-4.6-4.2-7.3-8.3-8.5
		c-6.4-1.9-13.1-3.1-19.7-4.4c-4.6-0.9-9.3-1.6-14.2-2.5c9.7-14.5,18.8-28.4,28.2-42c0.5-0.8,2.7-1.2,3.8-0.8
		c8.4,2.4,16.6,4.9,25,7.4c1.8,0.5,3.6,1,6.1,1.6c-3.6-10.2-5.5-19.7-2.6-29c78.8,10.1,157.2,10.8,235.5-0.8c-0.2-0.7-0.4-1-0.6-1
		c-3.5-0.4-6.9-0.8-10.4-1.2c-49.5-5.1-98.3-13.7-146.3-26.7c-49.5-13.4-97.3-31-141.8-56.7c-31-17.9-59.3-39.1-82.2-66.9
		c-23.9-29.1-38.5-61.9-39.9-100c-0.3-7.7,0-15.4,0-23.1c0.5-0.1,1-0.1,1.5-0.2c0.7,1.3,1.3,2.6,2,4c11,23.4,23.3,46,37.6,67.5
		C258.4,365,312.4,409,382.4,432.8c32.6,11.1,66.1,17.4,100.3,20.6c5.8,0.5,11.6,0.9,17.4,1.3c-6.5-4.6-13.1-8.4-19.6-12.3
		c-16.1-9.5-32-19.3-46-31.8c-13.1-11.6-23.7-25-30.3-41.3c-1.2-2.9-2.2-6-3.5-9.8c15.4,3.5,30,6.7,45.3,10.1
		c-0.9-1.3-1.4-2-1.9-2.7c-7.9-12.1-16.8-23.8-23.6-36.5c-9.2-17.2-16.9-35.3-25-53.1c-8.4-18.4-17.5-36.4-29.3-53
		c-23.3-32.7-54.8-54.7-91.1-70.5c-5.8-2.5-11.7-4.8-17.7-7.3c-4.6,8.4-9,16.5-13.5,24.6c-2.2-18.4,0.1-35.6,12.3-51.1
		c-4.5,0.6-8.1,1-12.7,1.6c1.8-1.4,2.8-2.2,3.8-2.9c10.8-7.5,22.4-13.5,34.7-18.1c25-9.3,51.2-12.8,77.7-14.7
		c6.8-0.5,13.6-0.8,20.9-1.2c-0.6-1.2-0.9-2-1.4-2.7c-4.9-8-12-13.5-20.2-17.7c-11.7-6-24.2-9-37.1-11c-24.7-3.7-49.6-3.7-74.5-2.7
		c-1.9,0.1-3.8,0.2-5.7,0.3c0-0.3,0-0.5,0-0.8c5.9-2.5,11.8-5,17.7-7.4c0.1-0.4,0.1-0.9,0.2-1.3c-8-3-15.9-6.6-24.2-8.9
		C226.6,30.1,218.4,29.1,210.2,27.6z"/>
	<path d="M210.2,27.6c8.1,1.6,16.4,2.6,24.3,4.8c8.2,2.3,16.1,5.9,24.2,8.9c-0.1,0.4-0.1,0.9-0.2,1.3c-5.9,2.5-11.8,5-17.7,7.4
		c0,0.3,0,0.5,0,0.8c1.9-0.1,3.8-0.2,5.7-0.3c24.9-1,49.8-1.1,74.5,2.7c12.9,1.9,25.4,5,37.1,11c8.2,4.2,15.3,9.8,20.2,17.7
		c0.4,0.7,0.8,1.5,1.4,2.7c-7.2,0.4-14.1,0.8-20.9,1.2c-26.5,1.9-52.6,5.3-77.7,14.7c-12.3,4.6-23.9,10.5-34.7,18.1
		c-1,0.7-2,1.5-3.8,2.9c4.6-0.6,8.2-1,12.7-1.6c-12.1,15.5-14.4,32.7-12.3,51.1c4.4-8.1,8.9-16.2,13.5-24.6c6,2.5,11.9,4.7,17.7,7.3
		c36.3,15.8,67.9,37.8,91.1,70.5c11.8,16.5,20.8,34.6,29.3,53c8.2,17.8,15.8,35.8,25,53.1c6.8,12.7,15.7,24.4,23.6,36.5
		c0.5,0.7,1,1.4,1.9,2.7c-15.2-3.4-29.8-6.7-45.3-10.1c1.4,3.8,2.3,6.8,3.5,9.8c6.6,16.3,17.3,29.7,30.3,41.3
		c14,12.5,29.9,22.3,46,31.8c6.6,3.9,13.2,7.7,19.6,12.3c-5.8-0.4-11.6-0.7-17.4-1.3c-34.2-3.2-67.7-9.5-100.3-20.6
		c-70-23.8-124-67.8-164.5-129.1c-14.2-21.6-26.6-44.2-37.6-67.5c-0.6-1.3-1.3-2.6-2-4c-0.5,0.1-1,0.1-1.5,0.2
		c0,7.7-0.3,15.4,0,23.1c1.5,38,16,70.9,39.9,100c22.9,27.8,51.2,49.1,82.2,66.9c44.5,25.7,92.3,43.3,141.8,56.7
		c48,13,96.9,21.6,146.3,26.7c3.5,0.4,7,0.8,10.4,1.2c0.2,0,0.4,0.3,0.6,1c-78.4,11.7-156.8,10.9-235.5,0.8c-2.9,9.3-1,18.9,2.6,29
		c-2.5-0.7-4.3-1.1-6.1-1.6c-8.3-2.5-16.6-5.1-25-7.4c-1.1-0.3-3.3,0-3.8,0.8c-9.3,13.7-18.5,27.5-28.2,42c5,0.9,9.6,1.5,14.2,2.5
		c6.6,1.3,13.2,2.5,19.7,4.4c4.2,1.2,7.6,3.9,8.3,8.5c-7.7-1.3-15.3-3-23-3.9c-5.6-0.6-11.4-0.5-17.1,0c-2.6,0.2-5,2.1-7.6,3.2
		c-0.9,0.4-1.9,0.8-2.9,0.8c-13.5,0.2-27,0.9-40.4,0.3c-14.4-0.7-28.8-2.7-43.2-4.2c-4-0.4-7.7-0.2-10.7,3c-0.7,0.7-2.1,0.9-3.2,1
		c-24.3,1.9-48.5,0.6-72.6-2.6c-9-1.2-18-2.4-27-3.3c-15.8-1.5-21.8-0.7-39.5,5c0.7-5.6,3.7-9.9,8.4-11.9c6.5-2.8,13.3-5.3,20.2-6.4
		c19.9-3.2,39.8-1.2,59.7,1c6.3,0.7,12.6,1.7,18.9,2.6c3.5,0.5,6.3-0.4,8.3-3.5c7.4-11.6,14.9-23.1,22.4-34.6
		c6.5-9.9,13.1-19.6,19.5-29.5c0.8-1.3,1.3-3.5,0.8-4.9c-5.2-15.2-13-28.7-26.5-38.2c-25.9-18.2-48.5-39.8-65.1-67.1
		c-12.9-21.2-20.9-44.2-23.9-68.9c-0.1-0.9-0.3-1.8-0.5-2.7c0-0.2-0.3-0.4-0.7-0.9c-5.9,19.6-3.6,39,0.3,59.5
		c-1.4-1.6-1.9-2.3-2.5-2.9c-27.8-35.4-47.7-74.6-53.6-119.6c-10.5-79.5,12.6-147.2,75-199.3c21.4-17.9,46.6-28.4,74.7-30.8
		c0.8-0.1,1.5-0.4,2.2-0.6C199.9,27.6,205,27.6,210.2,27.6z M302,518.2c-15.5-6.5-30-12.4-44.3-18.6c-3-1.3-4.4-1-6.2,1.7
		c-14.1,21.1-28.3,42.2-42.5,63.3c-0.3,0.4-0.4,0.9-0.6,1.3c0.4,0.2,0.6,0.4,0.8,0.4c18.4,1.9,36.9,3.7,55.3,5.5
		c1,0.1,2.6-0.5,3.2-1.3C279.2,553.2,290.5,535.7,302,518.2z M273.6,244.4c11.7,1.9,14.6,2.8,21,7.9c3.5,2.7,6.8,5.6,9.9,8.8
		c9.6,10.2,19.1,20.5,28.6,30.8c2.4,2.5,4.7,5.1,7.1,7.8c-13.6,3.4-20.7,13.7-18.6,26.9c1.6,10.1,9.6,16.4,21.6,16.7
		c9.5,0.2,18.9,0.1,28.4,0c0.8,0,1.6-0.3,3.2-0.6c-8.1-2-9.2-3.4-9.2-11.1c0-18.8,0-37.6,0-56.4c0-7.8,0.7-8.8,8-10.9
		c0.1,0,0.1-0.4,0.1-0.5c-7.9,0-15.9,0-23.8,0c7.1,2.2,8.2,3.7,8.2,11.2c0,20.1,0,40.2,0,60.3c0,1.4,0,2.7,0,4.3
		c-5.5,0-10.5,0.5-15.3-0.2c-3-0.4-6.5-1.9-8.4-4.1c-5.4-6.3-5.8-14-3.2-21.6c2.4-6.9,8.3-9.1,15-9.8c2.6-0.3,5.2-0.4,7.8-0.6
		c-2.4-2.3-4.6-4.2-6.6-6.4c-10.6-11.7-21-23.7-31.8-35.2c-4.9-5.1-10.3-9.9-16.1-13.9C291.7,242.4,282.8,241.7,273.6,244.4z
		 M230.7,202.3c5.8,0,11.1-0.3,16.3,0.1c2.3,0.2,4.9,1.4,6.5,3c6,6,6.6,13.6,4.5,21.4c-1.8,7-7.4,10-14.2,10.9c-3,0.4-6,0.6-9,0.9
		c0.4-0.3,0.8-0.5,1.2-0.8c2,2.7,3.9,5.5,6.1,8c11.1,12.5,22.3,25,33.6,37.3c6.3,6.8,13.5,12.6,22.8,14.9c5.6,1.4,11.1,1.5,15.9-0.3
		c-4.8-1.5-10.4-2.3-14.9-4.9c-5.4-3.1-10.5-7.2-14.9-11.7c-12.1-12.5-23.7-25.4-35.5-38.2c-0.2-0.2-0.2-0.7-0.3-1
		c11.9-2.2,19.4-12,18.4-24.1c-0.9-11.6-8.8-18.8-21.4-19.2c-5.1-0.1-10.1,0-15.2,0c-5.2,0-10.5,0-15.7,0c7.5,3.2,8.1,4.1,8.1,12.6
		c0,18.2,0,36.3,0,54.5c0,8.6-0.5,9.4-8.7,12.4c8.5,0,16.4,0,24.7,0c-8.4-3.4-8.6-3.7-8.6-13c0-19.5,0-38.9,0-58.4
		C230.7,205.3,230.7,203.9,230.7,202.3z M163.4,72.7c1.2-0.2,1.9-0.3,2.7-0.4c4.3-0.9,7.9-0.7,11.1,3.3c3.3,4.2,8.4,5.2,13.5,4.1
		c6.6-1.5,13.2-3.5,20-5.4C199.2,61.7,182.6,60.4,163.4,72.7z"/>
	<path class="st0" d="M302,518.2c-11.5,17.5-22.8,35-34.3,52.4c-0.5,0.8-2.1,1.4-3.2,1.3c-18.4-1.8-36.9-3.6-55.3-5.5
		c-0.2,0-0.4-0.2-0.8-0.4c0.2-0.4,0.3-0.9,0.6-1.3c14.2-21.1,28.4-42.1,42.5-63.3c1.8-2.7,3.2-3,6.2-1.7
		C272,505.8,286.5,511.7,302,518.2z"/>
	<path class="st1" d="M273.6,244.4c9.2-2.7,18.1-2,25.9,3.4c5.8,4,11.3,8.7,16.1,13.9c10.9,11.5,21.2,23.5,31.8,35.2
		c2,2.2,4.2,4.1,6.6,6.4c-2.6,0.2-5.2,0.4-7.8,0.6c-6.7,0.7-12.7,2.9-15,9.8c-2.6,7.6-2.2,15.3,3.2,21.6c1.9,2.2,5.4,3.7,8.4,4.1
		c4.8,0.7,9.8,0.2,15.3,0.2c0-1.6,0-2.9,0-4.3c0-20.1,0-40.2,0-60.3c0-7.5-1.1-9-8.2-11.2c7.9,0,15.9,0,23.8,0c0,0,0,0.5-0.1,0.5
		c-7.3,2.1-8,3-8,10.9c0,18.8,0,37.6,0,56.4c0,7.7,1.1,9.1,9.2,11.1c-1.5,0.3-2.4,0.6-3.2,0.6c-9.5,0-18.9,0.2-28.4,0
		c-12-0.3-20-6.6-21.6-16.7c-2.1-13.1,4.9-23.5,18.6-26.9c-2.5-2.7-4.8-5.3-7.1-7.8c-9.5-10.3-19-20.6-28.6-30.8
		c-3-3.2-6.4-6.1-9.9-8.8C288.2,247.3,285.2,246.3,273.6,244.4z"/>
	<path class="st1" d="M230.7,202.3c0,1.6,0,2.9,0,4.3c0,19.5,0,38.9,0,58.4c0,9.3,0.2,9.6,8.6,13c-8.3,0-16.2,0-24.7,0
		c8.2-3,8.7-3.8,8.7-12.4c0-18.2,0-36.3,0-54.5c0-8.6-0.6-9.4-8.1-12.6c5.2,0,10.5,0,15.7,0c5.1,0,10.1-0.1,15.2,0
		c12.5,0.3,20.5,7.5,21.4,19.2c0.9,12.1-6.6,21.9-18.4,24.1c0.1,0.3,0.1,0.8,0.3,1c11.8,12.8,23.4,25.7,35.5,38.2
		c4.4,4.5,9.4,8.7,14.9,11.7c4.5,2.6,10.1,3.4,14.9,4.9c-4.8,1.8-10.4,1.6-15.9,0.3c-9.3-2.3-16.5-8-22.8-14.9
		c-11.3-12.3-22.5-24.8-33.6-37.3c-2.2-2.5-4.1-5.3-6.1-8c-0.4,0.3-0.8,0.5-1.2,0.8c3-0.3,6-0.5,9-0.9c6.8-0.9,12.3-3.9,14.2-10.9
		c2-7.7,1.4-15.3-4.5-21.4c-1.6-1.6-4.3-2.8-6.5-3C241.8,202,236.5,202.3,230.7,202.3z"/>
	<path class="st1" d="M163.4,72.7c19.1-12.3,35.7-11,47.2,1.6c-6.8,1.9-13.3,3.9-20,5.4c-5.1,1.1-10.2,0.1-13.5-4.1
		c-3.2-3.9-6.8-4.1-11.1-3.3C165.4,72.4,164.6,72.5,163.4,72.7z"/>
</g>
</svg>
