<?xml version="1.0" encoding="utf-8"?>
<!-- Generator: Adobe Illustrator 24.0.0, SVG Export Plug-In . SVG Version: 6.00 Build 0)  -->
<svg version="1.1" id="Layer_1" xmlns="http://www.w3.org/2000/svg" xmlns:xlink="http://www.w3.org/1999/xlink" x="0px" y="0px"
	 viewBox="0 0 705.1 691.3" style="enable-background:new 0 0 705.1 691.3;" xml:space="preserve">
<path d="M644.4,337.7l-143.1-40.4c-11.2-3.2-16.9-14.4-12.3-24.3c2.7-5.8,5.7-11.4,9-16.8c1.7-2.8,2.6-5.9,2.6-9V242
	c0-8.3-6-15.6-14.8-17.9c-41.1-10.9-86.2-22.1-134.7-22.1s-93.5,11.2-134.7,22.1c-8.8,2.3-14.8,9.6-14.8,17.9v1.8
	c0,3.4,1.1,6.7,3,9.7c3.4,5.2,6.6,10.7,9.5,16.4c5.2,10.1-0.5,22.1-12.1,25.6L57.4,339.2c-11.7,3.5-24.1-3-26.6-13.9
	c-14.1-60.2,7.9-116.1,54.1-130.1c3.8-1.2,7.7-2,11.6-2.5c1.3-0.2,2.6-0.5,3.8-0.9c103.1-34.4,193.1-53.5,250.7-53.5
	c101,0,184.7,28.6,244,50.4c2,0.7,4.2,1.2,6.3,1.3c4.9,0.3,9.8,1.2,14.7,2.5c45.8,12.9,68.1,69.4,54.6,131.1
	C668.3,334.5,656,341,644.4,337.7z"/>
<path d="M539.9,410.9c-31.1-64.4-72.7-130.2-92-159.8c-2.7-4.2-10.7-2.7-10.7,2v64.2h-159c-3.2,0-5.7-2-5.7-4.5v-62.6
	c0-4.6-7.7-6.2-10.6-2.2c-20.9,28.8-68.3,96.7-100.1,162.8c-37.3,77.3-51.7,223.1-51.7,223.1c0,9.8,10.2,17.8,22.7,17.8h445.1
	c12.5,0,22.7-7.9,22.7-17.8C600.6,633.9,577.1,487.9,539.9,410.9z M432,355.4c11.3,0,20.4,7.2,20.4,16.1s-9.1,16.1-20.4,16.1
	s-20.4-7.2-20.4-16.1S420.7,355.4,432,355.4z M355.8,339.4c11.3,0,20.4,7.2,20.4,16.1s-9.1,16.1-20.4,16.1s-20.4-7.2-20.4-16.1
	S344.6,339.4,355.8,339.4z M279.8,355.4c11.3,0,20.4,7.2,20.4,16.1s-9.1,16.1-20.4,16.1s-20.4-7.2-20.4-16.1
	S268.5,355.4,279.8,355.4z M224,399.2c11.3,0,20.4,7.2,20.4,16.1s-9.1,16.1-20.4,16.1s-20.4-7.2-20.4-16.1S212.8,399.2,224,399.2z
	 M183.3,475.1c0-8.9,9.1-16.1,20.4-16.1s20.4,7.2,20.4,16.1s-9.1,16.1-20.4,16.1S183.3,484,183.3,475.1z M224.1,551
	c-11.3,0-20.4-7.2-20.4-16.1s9.1-16.1,20.4-16.1s20.4,7.2,20.4,16.1S235.4,551,224.1,551z M279.8,594.7c-11.3,0-20.4-7.2-20.4-16.1
	s9.1-16.1,20.4-16.1s20.4,7.2,20.4,16.1S291.1,594.7,279.8,594.7z M355.9,610.8c-11.3,0-20.4-7.2-20.4-16.1s9.1-16.1,20.4-16.1
	s20.4,7.2,20.4,16.1S367.2,610.8,355.9,610.8z M432,594.7c-11.3,0-20.4-7.2-20.4-16.1s9.1-16.1,20.4-16.1s20.4,7.2,20.4,16.1
	S443.3,594.7,432,594.7z M355.9,555.4c-56.4,0-102.2-36-102.2-80.3c0-44.3,45.8-80.3,102.2-80.3c56.4,0,102.2,36,102.2,80.3
	C458.1,519.4,412.3,555.4,355.9,555.4z M467.3,415.3c0-8.9,9.1-16.1,20.4-16.1s20.4,7.2,20.4,16.1s-9.1,16.1-20.4,16.1
	S467.3,424.2,467.3,415.3z M508.1,491.2c-11.3,0-20.4-7.2-20.4-16.1s9.1-16.1,20.4-16.1s20.4,7.2,20.4,16.1S519.4,491.2,508.1,491.2
	z"/>
</svg>
